<?xml version="1.0" encoding="UTF-8"?>
<svg version="1.1" xmlns="http://www.w3.org/2000/svg" width="500" height="500">
<path d="M0 0 C165 0 330 0 500 0 C500 165 500 330 500 500 C335 500 170 500 0 500 C0 335 0 170 0 0 Z " fill="#F5F5F0" transform="translate(0,0)"/>
<path d="M0 0 C1.32 0 2.64 0 4 0 C5.45703125 1.47436523 5.45703125 1.47436523 6.8125 3.55859375 C7.32482178 4.32905029 7.83714355 5.09950684 8.36499023 5.89331055 C8.90454346 6.73289307 9.44409668 7.57247559 10 8.4375 C11.15632824 10.18310299 12.31390795 11.92787753 13.47265625 13.671875 C14.05805176 14.56068359 14.64344727 15.44949219 15.24658203 16.36523438 C17.90379408 20.35808212 20.66312338 24.27554061 23.4375 28.1875 C23.90865234 28.85644287 24.37980469 29.52538574 24.86523438 30.21459961 C25.77504601 31.50162275 26.69382135 32.78236287 27.62207031 34.05615234 C28.58689017 35.41722529 29.50489592 36.81213878 30.38574219 38.22900391 C32.96669555 42.30411506 32.96669555 42.30411506 36.97338867 44.72338867 C39.14624513 45.00789652 41.18531116 45.05939481 43.375 45 C44.47908203 45.01740234 44.47908203 45.01740234 45.60546875 45.03515625 C47.40353239 45.05850773 49.2021093 45.03416419 51 45 C55.37658806 54.20325078 59.29843854 63.50982648 63 73 C63.66 73 64.32 73 65 73 C66.90941457 69.79218351 68.04862191 67.77795049 67.8125 64 C67.07097202 61.02460351 67.07097202 61.02460351 65.9375 58.375 C63.40691406 49.2648906 64.65553132 41.89553523 69.23046875 33.69921875 C73.91466988 26.55400245 79.69944398 21.90809522 87.921875 19.41796875 C97.19226016 17.5534364 106.01060161 19.32129082 114.03515625 24.25 C119.73995877 28.66338569 123.73520587 35.20561762 126 42 C126.80599344 51.42087417 126.17530633 59.65779583 120.2109375 67.2890625 C119.00170204 68.65753884 117.76311127 70.00100578 116.48828125 71.30859375 C114.77058063 73.03945438 114.77058063 73.03945438 114 76 C114.763125 75.938125 115.52625 75.87625 116.3125 75.8125 C119 76 119 76 120.75 77 C122 79 122 79 122.3046875 82.58203125 C122.87655281 87.58585271 124.93470053 91.34369297 127.375 95.6875 C128.27621304 97.3514697 129.17724773 99.01553599 130.078125 100.6796875 C131.05142892 102.45348424 132.0254089 104.22691016 133 106 C135.05931735 109.76156517 137.09726215 113.53383611 139.125 117.3125 C139.6101709 118.1893042 140.0953418 119.0661084 140.59521484 119.96948242 C144.87080737 127.94620722 144.87080737 127.94620722 144 133 C141.47200411 135.75105435 139.48086004 136.84298448 135.9375 138 C133 138 133 138 131.10058594 136.54394531 C128.23813575 133.07733316 126.41577119 129.32475865 124.453125 125.296875 C123.8290274 124.04019012 123.8290274 124.04019012 123.19232178 122.75811768 C121.87062999 120.09241895 120.56019886 117.42136325 119.25 114.75 C118.35360288 112.93713475 117.45647554 111.12463037 116.55859375 109.3125 C114.36391365 104.87913644 112.1793132 100.44093631 110 96 C109.98786972 97.02690445 109.98786972 97.02690445 109.97549438 98.07455444 C109.88964993 105.17945406 109.79015585 112.28406817 109.68261719 119.38867188 C109.64425819 122.04259458 109.60941774 124.69657051 109.578125 127.35058594 C109.53262464 131.1583971 109.47460551 134.96583958 109.4140625 138.7734375 C109.40251129 139.96617279 109.39096008 141.15890808 109.37905884 142.38778687 C109.35918915 143.48877716 109.33931946 144.58976746 109.31884766 145.72412109 C109.30552399 146.69674896 109.29220032 147.66937683 109.2784729 148.67147827 C109 151 109 151 107 153 C104.67749023 153.24291992 104.67749023 153.24291992 101.80859375 153.23046875 C100.78185547 153.22853516 99.75511719 153.22660156 98.69726562 153.22460938 C97.62154297 153.21236328 96.54582031 153.20011719 95.4375 153.1875 C94.35791016 153.18685547 93.27832031 153.18621094 92.16601562 153.18554688 C84.14014598 153.14014598 84.14014598 153.14014598 83 152 C82.90742667 149.68995799 82.88541475 147.37707738 82.88989258 145.06518555 C82.88934971 143.56157937 82.8887627 142.05797321 82.88813782 140.55436707 C82.88956598 139.75328207 82.89099415 138.95219707 82.89246559 138.12683678 C82.89597173 133.90024755 82.87019779 129.6737937 82.84960938 125.44726562 C82.82526018 120.06149187 82.80957218 114.67610428 82.82495117 109.2902832 C82.8366001 104.94455831 82.81924879 100.59979555 82.78250694 96.25422096 C82.77387886 94.59685141 82.77599129 92.93939005 82.789011 91.28204918 C82.80587669 88.96129344 82.78574498 86.64357547 82.75708008 84.32299805 C82.77087204 83.63764481 82.784664 82.95229156 82.7988739 82.24617004 C82.81008234 80.06702893 82.81008234 80.06702893 82 77 C79.21268145 74.60128728 79.21268145 74.60128728 76 73 C74.31916921 71.68456721 72.6475884 70.35683751 71 69 C70.62875 70.2684375 70.62875 70.2684375 70.25 71.5625 C68.86026373 75.38427474 67.08879162 78.51868063 65 82 C64.01 82 63.02 82 62 82 C60.14405793 77.62365215 58.29276764 73.24537765 56.44580078 68.86523438 C55.81654974 67.37478328 55.18602066 65.8848711 54.55419922 64.39550781 C53.64736466 62.25725741 52.74511211 60.11712448 51.84375 57.9765625 C51.4172113 56.97491562 51.4172113 56.97491562 50.98205566 55.95303345 C49 51.22774341 49 51.22774341 49 49 C47.99582031 49.20882812 46.99164063 49.41765625 45.95703125 49.6328125 C41.47693734 50.27802096 37.31710217 50.55950365 33 49 C27.99722822 44.99483662 24.86610844 39.05922357 21.61181641 33.63574219 C18.92235061 29.23776086 15.94143883 25.04403624 13 20.8125 C11.9566011 19.27852057 10.91485321 17.74341644 9.875 16.20703125 C7.30722123 12.42870355 4.67052676 8.70633769 2 5 C-4.13154665 9.90523732 -9.29295857 15.54348326 -14.52539062 21.36376953 C-17.00126859 24.11101028 -19.5011083 26.83620747 -22 29.5625 C-22.886875 30.53316406 -23.77375 31.50382812 -24.6875 32.50390625 C-26.42448634 34.37879522 -28.17248042 36.21456146 -30 38 C-30.99 37.67 -31.98 37.34 -33 37 C-31.66000502 33.993182 -30.20154709 32.00237391 -27.8125 29.75 C-25.3180128 27.38987628 -23.0326979 24.91672147 -20.78515625 22.32421875 C-16.84919301 17.79050041 -12.75235054 13.42168146 -8.625 9.0625 C-7.90183594 8.29615234 -7.17867187 7.52980469 -6.43359375 6.74023438 C-1.24503968 1.24503968 -1.24503968 1.24503968 0 0 Z " fill="#85D364" transform="translate(199,124)"/>
<path d="M0 0 C1.61358398 -0.01836914 1.61358398 -0.01836914 3.25976562 -0.03710938 C4.28650391 -0.03904297 5.31324219 -0.04097656 6.37109375 -0.04296875 C7.79119751 -0.04913208 7.79119751 -0.04913208 9.23999023 -0.05541992 C11.5625 0.1875 11.5625 0.1875 13.5625 2.1875 C13.81418228 4.25524139 13.81418228 4.25524139 13.81646729 6.85632324 C13.82210693 7.84063828 13.82774658 8.82495331 13.83355713 9.83909607 C13.82950867 10.92279984 13.82546021 12.0065036 13.82128906 13.12304688 C13.8247937 14.2612941 13.82829834 15.39954132 13.83190918 16.57228088 C13.84074149 20.35033188 13.83487197 24.12819697 13.828125 27.90625 C13.82947122 30.52176957 13.83141138 33.1372889 13.83392334 35.75280762 C13.83756453 41.24066193 13.83275991 46.72846245 13.82324219 52.21630859 C13.81235731 58.56587455 13.81588278 64.91531209 13.826895 71.26487494 C13.83705503 77.36670992 13.83599177 83.46848784 13.83013153 89.57032776 C13.82879349 92.16996783 13.83044812 94.76961116 13.83509064 97.36924744 C13.84014665 100.99690545 13.83245849 104.6243138 13.82128906 108.25195312 C13.82533752 109.33565689 13.82938599 110.41936066 13.83355713 111.53590393 C13.82791748 112.52021896 13.82227783 113.504534 13.81646729 114.51867676 C13.81571323 115.37703377 13.81495918 116.23539078 13.81418228 117.11975861 C13.5625 119.1875 13.5625 119.1875 11.5625 121.1875 C9.23999023 121.43041992 9.23999023 121.43041992 6.37109375 121.41796875 C5.34435547 121.41603516 4.31761719 121.41410156 3.25976562 121.41210938 C2.18404297 121.39986328 1.10832031 121.38761719 0 121.375 C-1.07958984 121.37435547 -2.15917969 121.37371094 -3.27148438 121.37304688 C-11.29735402 121.32764598 -11.29735402 121.32764598 -12.4375 120.1875 C-12.53551653 118.6462916 -12.56381846 117.10059632 -12.56448364 115.55627441 C-12.56730347 114.55506058 -12.57012329 113.55384674 -12.57302856 112.52229309 C-12.57100433 111.41472153 -12.5689801 110.30714996 -12.56689453 109.16601562 C-12.56864685 108.00680099 -12.57039917 106.84758636 -12.57220459 105.65324402 C-12.57662595 101.80006437 -12.57368411 97.94693017 -12.5703125 94.09375 C-12.57098546 91.42956484 -12.5719537 88.76538109 -12.57321167 86.10119629 C-12.57503322 80.50902814 -12.57262745 74.91687318 -12.56787109 69.32470703 C-12.5624285 62.85077498 -12.56419117 56.37687442 -12.5696975 49.90294313 C-12.57422906 44.35390595 -12.57487897 38.80487826 -12.57225883 33.25583982 C-12.57069629 29.93754692 -12.57089174 26.61927214 -12.57379532 23.30097961 C-12.57632017 19.60362586 -12.57248361 15.90633353 -12.56689453 12.20898438 C-12.56891876 11.10141281 -12.57094299 9.99384125 -12.57302856 8.85270691 C-12.57020874 7.85149307 -12.56738892 6.85027924 -12.56448364 5.81872559 C-12.56410662 4.94339928 -12.56372959 4.06807297 -12.56334114 3.16622162 C-12.23000345 -2.07516839 -3.93331341 0.00234825 0 0 Z " fill="#F1F1EC" transform="translate(200.4375,155.8125)"/>
<path d="M0 0 C1.46566406 -0.00386719 1.46566406 -0.00386719 2.9609375 -0.0078125 C3.98445312 -0.00007812 5.00796875 0.00765625 6.0625 0.015625 C7.08601562 0.00789062 8.10953125 0.00015625 9.1640625 -0.0078125 C10.14117187 -0.00523437 11.11828125 -0.00265625 12.125 0 C13.02347656 0.00225586 13.92195313 0.00451172 14.84765625 0.00683594 C17.0625 0.265625 17.0625 0.265625 19.0625 2.265625 C19.25592354 5.09186727 19.32471211 7.81974922 19.30541992 10.64672852 C19.30731827 11.51348206 19.30921661 12.3802356 19.31117249 13.27325439 C19.3148866 16.14710445 19.30416785 19.02070354 19.29296875 21.89453125 C19.29177729 23.88467886 19.29132371 25.87482703 19.2915802 27.86497498 C19.29001428 32.03884392 19.28171576 36.21262721 19.26831055 40.38647461 C19.25130955 45.74922013 19.24749645 51.11187153 19.24825573 56.47464085 C19.24798444 60.58457851 19.24250998 64.69449541 19.23525429 68.80442619 C19.23206181 70.78247864 19.23009887 72.76053345 19.22936058 74.73858833 C19.22720375 77.4970721 19.21847418 80.25545397 19.20776367 83.01391602 C19.20844345 84.25213356 19.20844345 84.25213356 19.20913696 85.5153656 C19.17697436 91.15115064 19.17697436 91.15115064 18.0625 92.265625 C14.25661856 92.51771222 10.43824544 92.45084844 6.625 92.453125 C5.54927734 92.46537109 4.47355469 92.47761719 3.36523438 92.49023438 C2.33849609 92.49216797 1.31175781 92.49410156 0.25390625 92.49609375 C-1.16619751 92.50225708 -1.16619751 92.50225708 -2.61499023 92.50854492 C-4.9375 92.265625 -4.9375 92.265625 -6.9375 90.265625 C-7.13613343 87.47511409 -7.21019851 84.78383452 -7.19628906 81.9921875 C-7.1997937 81.13679382 -7.20329834 80.28140015 -7.20690918 79.40008545 C-7.21573477 76.56351686 -7.20987445 73.72719627 -7.203125 70.890625 C-7.20447141 68.92529248 -7.20641174 66.95996028 -7.20892334 64.99462891 C-7.21187572 60.87203811 -7.20757328 56.74953387 -7.19824219 52.62695312 C-7.1868476 47.3337617 -7.19340646 42.04077309 -7.20538712 36.74758911 C-7.21260263 32.68821678 -7.21031921 28.6288928 -7.20513153 24.56951904 C-7.20379418 22.61741105 -7.20544573 20.66529872 -7.21009064 18.7131958 C-7.2151508 15.98836585 -7.20745288 13.26386764 -7.19628906 10.5390625 C-7.20033752 9.72653015 -7.20438599 8.9139978 -7.20855713 8.07684326 C-7.16079348 1.80701198 -6.34822711 0.01593888 0 0 Z " fill="#F1F1EC" transform="translate(162.9375,184.734375)"/>
<path d="M0 0 C5.5122786 3.42986224 8.96722885 8.90168654 11 15 C11.64289115 24.72991026 11.35846932 31.96229602 5.875 40.1875 C1.61634825 44.93953213 -5.21009865 48.64812179 -11.56640625 49.23828125 C-20.6305843 49.4628176 -27.97620062 48.07073703 -34.875 41.875 C-40.56882502 35.54852776 -42.74789832 28.16167768 -42.37890625 19.734375 C-41.36771158 12.43709387 -38.54128842 6.42465957 -33.0390625 1.47265625 C-22.64691003 -6.0327872 -11.09205287 -5.79766103 0 0 Z " fill="#F0F4E9" transform="translate(310,151)"/>
<path d="M0 0 C0.94673584 0.00410889 1.89347168 0.00821777 2.86889648 0.01245117 C3.89563477 0.01438477 4.92237305 0.01631836 5.98022461 0.01831055 C7.05594727 0.03055664 8.13166992 0.04280273 9.23999023 0.05541992 C10.31958008 0.05606445 11.39916992 0.05670898 12.51147461 0.05737305 C20.53734426 0.10277394 20.53734426 0.10277394 21.67749023 1.24291992 C21.77664818 3.13990841 21.80548337 5.04060779 21.80688477 6.94018555 C21.81003693 8.15814819 21.81318909 9.37611084 21.81643677 10.63098145 C21.81464698 11.97037797 21.81259603 13.30977417 21.81030273 14.64916992 C21.81097583 16.01298032 21.8119459 17.3767906 21.8132019 18.74060059 C21.81467861 21.60222513 21.8125252 24.46381852 21.80786133 27.32543945 C21.80216404 31.00110606 21.80544319 34.67669966 21.81143379 38.35236359 C21.81504014 41.16954096 21.81390048 43.9867009 21.811306 46.80387878 C21.81063694 48.15952055 21.81146444 49.51516389 21.81378555 50.87080383 C21.81631325 52.76242036 21.81178037 54.65404241 21.80688477 56.5456543 C21.80608917 57.62407593 21.80529358 58.70249756 21.80447388 59.81359863 C21.67749023 62.24291992 21.67749023 62.24291992 20.67749023 63.24291992 C16.87160879 63.49500714 13.05323567 63.42814336 9.23999023 63.43041992 C7.62640625 63.44878906 7.62640625 63.44878906 5.98022461 63.4675293 C4.95348633 63.46946289 3.92674805 63.47139648 2.86889648 63.47338867 C1.44879272 63.479552 1.44879272 63.479552 0 63.48583984 C-2.32250977 63.24291992 -2.32250977 63.24291992 -4.32250977 61.24291992 C-4.57647705 58.77600098 -4.57647705 58.77600098 -4.58129883 55.6315918 C-4.58760315 54.45697388 -4.59390747 53.28235596 -4.60040283 52.07214355 C-4.59635437 50.79818726 -4.59230591 49.52423096 -4.58813477 48.21166992 C-4.59004822 46.90967651 -4.59196167 45.60768311 -4.59393311 44.26623535 C-4.59688368 41.50890364 -4.59258901 38.75170144 -4.58325195 35.99438477 C-4.5718573 32.45664919 -4.57841715 28.91921705 -4.59039688 25.38149261 C-4.5993537 22.01236058 -4.59308617 18.64331058 -4.58813477 15.27416992 C-4.59218323 14.00021362 -4.59623169 12.72625732 -4.60040283 11.41369629 C-4.59409851 10.23907837 -4.58779419 9.06446045 -4.58129883 7.85424805 C-4.57970764 6.81659302 -4.57811646 5.77893799 -4.57647705 4.70983887 C-4.23188525 1.36263591 -3.37583615 0.35309124 0 0 Z " fill="#F0F0EB" transform="translate(254.322509765625,213.757080078125)"/>
<path d="M0 0 C5.94 0 11.88 0 18 0 C17.67 2.64 17.34 5.28 17 8 C17.33 8.66 17.66 9.32 18 10 C18.09119671 11.90981946 18.11752537 13.82287186 18.11352539 15.73486328 C18.11344986 16.93595734 18.11337433 18.13705139 18.11329651 19.37454224 C18.10813522 20.67664642 18.10297394 21.97875061 18.09765625 23.3203125 C18.09579138 24.66266833 18.0943678 26.00502484 18.09336853 27.34738159 C18.08954878 30.88195675 18.07972312 34.41649087 18.06866455 37.9510498 C18.05843878 41.55720464 18.05386841 45.1633661 18.04882812 48.76953125 C18.03810037 55.84637256 18.02050795 62.92317929 18 70 C12.06 70 6.12 70 0 70 C0 46.9 0 23.8 0 0 Z " fill="#F5F5F0" transform="translate(286,203)"/>
<path d="M0 0 C5.16265357 2.73450442 9.11017374 6.75239622 10.96484375 12.31640625 C11.70756043 19.17131598 11.01726998 24.63248375 6.96484375 30.31640625 C2.61272878 34.55692853 -1.44045407 36.39650985 -7.47265625 36.62890625 C-13.0725994 36.48031738 -16.48864987 34.64712104 -20.72265625 31.00390625 C-24.92416929 26.12106677 -26.63751442 22.02164604 -26.37890625 15.62109375 C-25.66876549 10.85992277 -23.88658105 7.01214305 -20.31640625 3.7421875 C-14.28271586 -0.71916408 -7.3352842 -2.46386706 0 0 Z " fill="#F4F5EE" transform="translate(302.03515625,155.68359375)"/>
<path d="M0 0 C1.61358398 -0.01836914 1.61358398 -0.01836914 3.25976562 -0.03710938 C4.28650391 -0.03904297 5.31324219 -0.04097656 6.37109375 -0.04296875 C7.79119751 -0.04913208 7.79119751 -0.04913208 9.23999023 -0.05541992 C11.5625 0.1875 11.5625 0.1875 13.5625 2.1875 C13.81418228 4.25524139 13.81418228 4.25524139 13.81646729 6.85632324 C13.82210693 7.84063828 13.82774658 8.82495331 13.83355713 9.83909607 C13.82950867 10.92279984 13.82546021 12.0065036 13.82128906 13.12304688 C13.8247937 14.2612941 13.82829834 15.39954132 13.83190918 16.57228088 C13.84074149 20.35033188 13.83487197 24.12819697 13.828125 27.90625 C13.82947122 30.52176957 13.83141138 33.1372889 13.83392334 35.75280762 C13.83756453 41.24066193 13.83275991 46.72846245 13.82324219 52.21630859 C13.81235731 58.56587455 13.81588278 64.91531209 13.826895 71.26487494 C13.83705503 77.36670992 13.83599177 83.46848784 13.83013153 89.57032776 C13.82879349 92.16996783 13.83044812 94.76961116 13.83509064 97.36924744 C13.84014665 100.99690545 13.83245849 104.6243138 13.82128906 108.25195312 C13.82533752 109.33565689 13.82938599 110.41936066 13.83355713 111.53590393 C13.82791748 112.52021896 13.82227783 113.504534 13.81646729 114.51867676 C13.81571323 115.37703377 13.81495918 116.23539078 13.81418228 117.11975861 C13.5625 119.1875 13.5625 119.1875 11.5625 121.1875 C9.23999023 121.43041992 9.23999023 121.43041992 6.37109375 121.41796875 C5.34435547 121.41603516 4.31761719 121.41410156 3.25976562 121.41210938 C2.18404297 121.39986328 1.10832031 121.38761719 0 121.375 C-1.07958984 121.37435547 -2.15917969 121.37371094 -3.27148438 121.37304688 C-11.29735402 121.32764598 -11.29735402 121.32764598 -12.4375 120.1875 C-12.53551653 118.6462916 -12.56381846 117.10059632 -12.56448364 115.55627441 C-12.56730347 114.55506058 -12.57012329 113.55384674 -12.57302856 112.52229309 C-12.57100433 111.41472153 -12.5689801 110.30714996 -12.56689453 109.16601562 C-12.56864685 108.00680099 -12.57039917 106.84758636 -12.57220459 105.65324402 C-12.57662595 101.80006437 -12.57368411 97.94693017 -12.5703125 94.09375 C-12.57098546 91.42956484 -12.5719537 88.76538109 -12.57321167 86.10119629 C-12.57503322 80.50902814 -12.57262745 74.91687318 -12.56787109 69.32470703 C-12.5624285 62.85077498 -12.56419117 56.37687442 -12.5696975 49.90294313 C-12.57422906 44.35390595 -12.57487897 38.80487826 -12.57225883 33.25583982 C-12.57069629 29.93754692 -12.57089174 26.61927214 -12.57379532 23.30097961 C-12.57632017 19.60362586 -12.57248361 15.90633353 -12.56689453 12.20898438 C-12.56891876 11.10141281 -12.57094299 9.99384125 -12.57302856 8.85270691 C-12.57020874 7.85149307 -12.56738892 6.85027924 -12.56448364 5.81872559 C-12.56410662 4.94339928 -12.56372959 4.06807297 -12.56334114 3.16622162 C-12.23000345 -2.07516839 -3.93331341 0.00234825 0 0 Z M-9.4375 3.1875 C-9.4375 41.1375 -9.4375 79.0875 -9.4375 118.1875 C-3.1675 118.1875 3.1025 118.1875 9.5625 118.1875 C9.5625 80.2375 9.5625 42.2875 9.5625 3.1875 C3.2925 3.1875 -2.9775 3.1875 -9.4375 3.1875 Z " fill="#0E0E0E" transform="translate(200.4375,155.8125)"/>
<path d="M0 0 C1.07507813 -0.00128906 2.15015625 -0.00257813 3.2578125 -0.00390625 C4.38960937 -0.00003906 5.52140625 0.00382813 6.6875 0.0078125 C7.81929687 0.00394531 8.95109375 0.00007812 10.1171875 -0.00390625 C11.19226563 -0.00261719 12.26734375 -0.00132812 13.375 0 C14.86580078 0.00169189 14.86580078 0.00169189 16.38671875 0.00341797 C18.6875 0.1328125 18.6875 0.1328125 19.6875 1.1328125 C19.79337789 3.98298548 19.83427735 6.80905618 19.83276367 9.65991211 C19.83612228 10.55417404 19.8394809 11.44843597 19.84294128 12.36979675 C19.85248157 15.34159718 19.85439592 18.31334145 19.85546875 21.28515625 C19.85867916 23.34159875 19.86204306 25.39804102 19.86555481 27.45448303 C19.87155377 31.77133718 19.87339392 36.08817128 19.87280273 40.4050293 C19.87270106 45.9482158 19.88635533 51.49127435 19.90357494 57.0344305 C19.9146701 61.28337703 19.91672271 65.53229238 19.91619301 69.78125191 C19.91737681 71.82547001 19.92182078 73.86968882 19.92952538 75.91389275 C19.93927544 78.76812689 19.93646707 81.62208011 19.93041992 84.47631836 C19.93603943 85.32782471 19.94165894 86.17933105 19.94744873 87.05664062 C19.91581529 92.90449721 19.91581529 92.90449721 17.6875 95.1328125 C15.47265625 95.39160156 15.47265625 95.39160156 12.75 95.3984375 C11.77289063 95.40101563 10.79578125 95.40359375 9.7890625 95.40625 C8.76554688 95.39851563 7.74203125 95.39078125 6.6875 95.3828125 C5.66398438 95.39054687 4.64046875 95.39828125 3.5859375 95.40625 C2.60882813 95.40367187 1.63171875 95.40109375 0.625 95.3984375 C-0.27347656 95.39618164 -1.17195312 95.39392578 -2.09765625 95.39160156 C-4.3125 95.1328125 -4.3125 95.1328125 -6.3125 93.1328125 C-6.50603365 90.21580909 -6.57467568 87.3940832 -6.55541992 84.47631836 C-6.55731827 83.58030411 -6.55921661 82.68428986 -6.56117249 81.76112366 C-6.56488698 78.78987976 -6.55416727 75.81887854 -6.54296875 72.84765625 C-6.54177731 70.79024789 -6.54132371 68.73283898 -6.5415802 66.6754303 C-6.54001422 62.36032718 -6.53171519 58.04530689 -6.51831055 53.73022461 C-6.5013099 48.18587738 -6.49749644 42.64162118 -6.49825573 37.09725094 C-6.49798444 32.84834415 -6.49251006 28.59945745 -6.48525429 24.35055733 C-6.48206168 22.30551875 -6.48009884 20.26047788 -6.47936058 18.21543694 C-6.47720386 15.36355546 -6.46847451 12.51177257 -6.45776367 9.65991211 C-6.45821686 8.80638153 -6.45867004 7.95285095 -6.45913696 7.07345581 C-6.4201289 0.00728614 -6.4201289 0.00728614 0 0 Z M-2.3125 4.1328125 C-2.3125 32.8428125 -2.3125 61.5528125 -2.3125 91.1328125 C3.6275 91.1328125 9.5675 91.1328125 15.6875 91.1328125 C15.6875 62.4228125 15.6875 33.7128125 15.6875 4.1328125 C9.7475 4.1328125 3.8075 4.1328125 -2.3125 4.1328125 Z " fill="#1E1E1E" transform="translate(225.3125,181.8671875)"/>
<path d="M0 0 C1.46566406 -0.00386719 1.46566406 -0.00386719 2.9609375 -0.0078125 C3.98445312 -0.00007812 5.00796875 0.00765625 6.0625 0.015625 C7.08601562 0.00789062 8.10953125 0.00015625 9.1640625 -0.0078125 C10.14117187 -0.00523437 11.11828125 -0.00265625 12.125 0 C13.02347656 0.00225586 13.92195313 0.00451172 14.84765625 0.00683594 C17.0625 0.265625 17.0625 0.265625 19.0625 2.265625 C19.25592354 5.09186727 19.32471211 7.81974922 19.30541992 10.64672852 C19.30731827 11.51348206 19.30921661 12.3802356 19.31117249 13.27325439 C19.3148866 16.14710445 19.30416785 19.02070354 19.29296875 21.89453125 C19.29177729 23.88467886 19.29132371 25.87482703 19.2915802 27.86497498 C19.29001428 32.03884392 19.28171576 36.21262721 19.26831055 40.38647461 C19.25130955 45.74922013 19.24749645 51.11187153 19.24825573 56.47464085 C19.24798444 60.58457851 19.24250998 64.69449541 19.23525429 68.80442619 C19.23206181 70.78247864 19.23009887 72.76053345 19.22936058 74.73858833 C19.22720375 77.4970721 19.21847418 80.25545397 19.20776367 83.01391602 C19.20844345 84.25213356 19.20844345 84.25213356 19.20913696 85.5153656 C19.17697436 91.15115064 19.17697436 91.15115064 18.0625 92.265625 C14.25661856 92.51771222 10.43824544 92.45084844 6.625 92.453125 C5.54927734 92.46537109 4.47355469 92.47761719 3.36523438 92.49023438 C2.33849609 92.49216797 1.31175781 92.49410156 0.25390625 92.49609375 C-1.16619751 92.50225708 -1.16619751 92.50225708 -2.61499023 92.50854492 C-4.9375 92.265625 -4.9375 92.265625 -6.9375 90.265625 C-7.13613343 87.47511409 -7.21019851 84.78383452 -7.19628906 81.9921875 C-7.1997937 81.13679382 -7.20329834 80.28140015 -7.20690918 79.40008545 C-7.21573477 76.56351686 -7.20987445 73.72719627 -7.203125 70.890625 C-7.20447141 68.92529248 -7.20641174 66.95996028 -7.20892334 64.99462891 C-7.21187572 60.87203811 -7.20757328 56.74953387 -7.19824219 52.62695312 C-7.1868476 47.3337617 -7.19340646 42.04077309 -7.20538712 36.74758911 C-7.21260263 32.68821678 -7.21031921 28.6288928 -7.20513153 24.56951904 C-7.20379418 22.61741105 -7.20544573 20.66529872 -7.21009064 18.7131958 C-7.2151508 15.98836585 -7.20745288 13.26386764 -7.19628906 10.5390625 C-7.20033752 9.72653015 -7.20438599 8.9139978 -7.20855713 8.07684326 C-7.16079348 1.80701198 -6.34822711 0.01593888 0 0 Z M-2.9375 4.265625 C-2.9375 32.315625 -2.9375 60.365625 -2.9375 89.265625 C3.3325 89.265625 9.6025 89.265625 16.0625 89.265625 C16.0625 61.215625 16.0625 33.165625 16.0625 4.265625 C9.7925 4.265625 3.5225 4.265625 -2.9375 4.265625 Z " fill="#141413" transform="translate(162.9375,184.734375)"/>
<path d="M0 0 C0.94673584 0.00410889 1.89347168 0.00821777 2.86889648 0.01245117 C3.89563477 0.01438477 4.92237305 0.01631836 5.98022461 0.01831055 C7.05594727 0.03055664 8.13166992 0.04280273 9.23999023 0.05541992 C10.31958008 0.05606445 11.39916992 0.05670898 12.51147461 0.05737305 C20.53734426 0.10277394 20.53734426 0.10277394 21.67749023 1.24291992 C21.77664818 3.13990841 21.80548337 5.04060779 21.80688477 6.94018555 C21.81003693 8.15814819 21.81318909 9.37611084 21.81643677 10.63098145 C21.81464698 11.97037797 21.81259603 13.30977417 21.81030273 14.64916992 C21.81097583 16.01298032 21.8119459 17.3767906 21.8132019 18.74060059 C21.81467861 21.60222513 21.8125252 24.46381852 21.80786133 27.32543945 C21.80216404 31.00110606 21.80544319 34.67669966 21.81143379 38.35236359 C21.81504014 41.16954096 21.81390048 43.9867009 21.811306 46.80387878 C21.81063694 48.15952055 21.81146444 49.51516389 21.81378555 50.87080383 C21.81631325 52.76242036 21.81178037 54.65404241 21.80688477 56.5456543 C21.80608917 57.62407593 21.80529358 58.70249756 21.80447388 59.81359863 C21.67749023 62.24291992 21.67749023 62.24291992 20.67749023 63.24291992 C16.87160879 63.49500714 13.05323567 63.42814336 9.23999023 63.43041992 C7.62640625 63.44878906 7.62640625 63.44878906 5.98022461 63.4675293 C4.95348633 63.46946289 3.92674805 63.47139648 2.86889648 63.47338867 C1.44879272 63.479552 1.44879272 63.479552 0 63.48583984 C-2.32250977 63.24291992 -2.32250977 63.24291992 -4.32250977 61.24291992 C-4.57647705 58.77600098 -4.57647705 58.77600098 -4.58129883 55.6315918 C-4.58760315 54.45697388 -4.59390747 53.28235596 -4.60040283 52.07214355 C-4.59635437 50.79818726 -4.59230591 49.52423096 -4.58813477 48.21166992 C-4.59004822 46.90967651 -4.59196167 45.60768311 -4.59393311 44.26623535 C-4.59688368 41.50890364 -4.59258901 38.75170144 -4.58325195 35.99438477 C-4.5718573 32.45664919 -4.57841715 28.91921705 -4.59039688 25.38149261 C-4.5993537 22.01236058 -4.59308617 18.64331058 -4.58813477 15.27416992 C-4.59218323 14.00021362 -4.59623169 12.72625732 -4.60040283 11.41369629 C-4.59409851 10.23907837 -4.58779419 9.06446045 -4.58129883 7.85424805 C-4.57970764 6.81659302 -4.57811646 5.77893799 -4.57647705 4.70983887 C-4.23188525 1.36263591 -3.37583615 0.35309124 0 0 Z M-0.32250977 3.24291992 C-0.32250977 22.05291992 -0.32250977 40.86291992 -0.32250977 60.24291992 C5.94749023 60.24291992 12.21749023 60.24291992 18.67749023 60.24291992 C18.67749023 41.43291992 18.67749023 22.62291992 18.67749023 3.24291992 C12.40749023 3.24291992 6.13749023 3.24291992 -0.32250977 3.24291992 Z " fill="#0B0B0B" transform="translate(254.322509765625,213.757080078125)"/>
<path d="M0 0 C4.2467972 1.60256498 6.61494333 3.15930702 9 7 C9.80503292 11.06541625 9.95254041 15.23956421 7.9453125 18.94921875 C6.18765675 21.09688687 4.49320013 22.75339994 2 24 C-3.08942479 24.49992739 -7.51742937 24.81692667 -12.0625 22.3125 C-15.29892439 18.44967088 -16.22205973 15.56763692 -16.0625 10.5625 C-15.54132955 6.93854737 -14.5779849 4.98152883 -11.9375 2.4375 C-7.80869139 -0.60834241 -5.0313605 -0.71876579 0 0 Z " fill="#25458A" transform="translate(143,306)"/>
<path d="M0 0 C0.99 0.33 1.98 0.66 3 1 C3 24.76 3 48.52 3 73 C12.405 72.505 12.405 72.505 22 72 C22.33 52.86 22.66 33.72 23 14 C23.99 14 24.98 14 26 14 C26.04629055 21.7884635 26.08185242 29.57689492 26.10362434 37.36546135 C26.11407249 40.98180873 26.12825032 44.59806216 26.15087891 48.21435547 C26.1725708 51.70268811 26.18456085 55.19093024 26.18975449 58.6793251 C26.19526169 60.66139971 26.21088034 62.64343779 26.22659302 64.62545776 C26.22674408 65.82655182 26.22689514 67.02764587 26.22705078 68.26513672 C26.231492 69.32658905 26.23593323 70.38804138 26.24050903 71.48165894 C26 74 26 74 24 76 C21.67749023 76.24291992 21.67749023 76.24291992 18.80859375 76.23046875 C17.78185547 76.22853516 16.75511719 76.22660156 15.69726562 76.22460938 C14.62154297 76.21236328 13.54582031 76.20011719 12.4375 76.1875 C11.35791016 76.18685547 10.27832031 76.18621094 9.16601562 76.18554688 C1.14014598 76.14014598 1.14014598 76.14014598 0 75 C-0.09492722 72.65746218 -0.12559791 70.34453896 -0.11352539 68.00170898 C-0.11367142 67.27004517 -0.11381744 66.53838135 -0.1139679 65.7845459 C-0.11326867 63.35503216 -0.10547585 60.92559417 -0.09765625 58.49609375 C-0.0957921 56.81600486 -0.09436819 55.13591543 -0.09336853 53.45582581 C-0.08954307 49.02526357 -0.07971256 44.5947339 -0.06866455 40.16418457 C-0.05845103 35.64657024 -0.05387104 31.12895066 -0.04882812 26.61132812 C-0.03809031 17.74087107 -0.02101356 8.87043824 0 0 Z " fill="#040404" transform="translate(282,201)"/>
<path d="M0 0 C6.77849844 3.04423582 11.0400631 7.10329081 14.734375 13.484375 C16.38828652 20.4308034 15.67497246 26.78567501 12.359375 33.109375 C8.92145294 38.21714492 5.26453182 41.41542777 -0.640625 43.109375 C-7.76463955 44.06221195 -14.00694214 44.07438598 -19.921875 39.67578125 C-24.67249414 35.34623972 -28.27755135 31.68496104 -28.94921875 25.0703125 C-29.20392146 17.98494633 -29.12361188 12.69863082 -24.6015625 7.01953125 C-17.40795653 0.01221388 -9.79648028 -3.30413832 0 0 Z M-21.2109375 8.828125 C-25.33658502 14.39185536 -26.28729722 19.25464951 -25.640625 26.109375 C-23.52232375 31.90683106 -20.00277139 35.55250579 -14.890625 38.921875 C-9.09915367 41.03798952 -3.9690898 41.00600413 1.671875 38.421875 C5.89621774 36.03675902 8.21705479 33.10843537 10.609375 28.921875 C12.09286922 23.35877169 12.47327935 17.51220537 9.734375 12.296875 C6.55579636 8.03088787 3.52672991 4.83182664 -1.640625 3.109375 C-9.15040673 2.29570416 -15.89982044 3.01496205 -21.2109375 8.828125 Z " fill="#86DB62" transform="translate(301.640625,151.890625)"/>
<path d="M0 0 C2.47363281 0.89453125 2.47363281 0.89453125 3.90820312 2.7578125 C4.28557617 3.56605469 4.66294922 4.37429687 5.05175781 5.20703125 C5.48657471 6.11018066 5.9213916 7.01333008 6.36938477 7.94384766 C6.81628662 8.91757324 7.26318848 9.89129883 7.72363281 10.89453125 C8.67829671 12.90347045 9.63536011 14.911271 10.59472656 16.91796875 C11.07151855 17.92311523 11.54831055 18.92826172 12.03955078 19.96386719 C13.37334637 22.6895877 14.78205505 25.34565343 16.25878906 27.99609375 C16.68579102 28.764375 17.11279297 29.53265625 17.55273438 30.32421875 C18.35963166 31.76040648 19.17760219 33.1904428 20.0078125 34.61328125 C22.57970831 39.24967623 22.57970831 39.24967623 22.07910156 42.29296875 C19.80349254 44.56304101 17.58630276 44.46525169 14.47363281 44.89453125 C11.77832833 39.57816786 9.09098485 34.25788438 6.41088867 28.93383789 C5.49834547 27.12382278 4.58364951 25.31489132 3.66674805 23.50708008 C2.34797625 20.90599034 1.03703601 18.30108138 -0.27246094 15.6953125 C-0.68290146 14.88991531 -1.09334198 14.08451813 -1.51622009 13.25471497 C-3.39975483 9.48876769 -5.01754796 6.13221547 -5.52636719 1.89453125 C-2.52636719 -0.10546875 -2.52636719 -0.10546875 0 0 Z " fill="#F3F5ED" transform="translate(317.5263671875,213.10546875)"/>
<path d="M0 0 C13.125 -0.66964286 13.125 -0.66964286 16.8125 2.125 C19 5 19 5 19.5625 8.0625 C18.95511373 11.23440607 17.92279446 12.49200723 16 15 C16.10417827 17.00339546 16.10417827 17.00339546 17 19 C17.350625 19.9075 17.70125 20.815 18.0625 21.75 C18.5265625 22.86375 18.5265625 22.86375 19 24 C16.25 24.375 16.25 24.375 13 24 C10.8125 21.0625 10.8125 21.0625 9 18 C8.01 17.67 7.02 17.34 6 17 C6 19.31 6 21.62 6 24 C4.02 24 2.04 24 0 24 C0 16.08 0 8.16 0 0 Z " fill="#28478C" transform="translate(363,306)"/>
<path d="M0 0 C0 7.92 0 15.84 0 24 C-1.98 24 -3.96 24 -6 24 C-6.33 20.04 -6.66 16.08 -7 12 C-7.556875 12.99 -8.11375 13.98 -8.6875 15 C-11 18 -11 18 -13.75 18.375 C-14.4925 18.25125 -15.235 18.1275 -16 18 C-17.98 14.535 -17.98 14.535 -20 11 C-20.33 15.29 -20.66 19.58 -21 24 C-22.65 24 -24.3 24 -26 24 C-26 16.41 -26 8.82 -26 1 C-24.35 1 -22.7 1 -21 1 C-19.05078125 3.15234375 -19.05078125 3.15234375 -17.3125 5.9375 C-15.22179277 9.58326346 -15.22179277 9.58326346 -12 12 C-11.6596875 10.9790625 -11.6596875 10.9790625 -11.3125 9.9375 C-10.22762635 7.50944944 -9.12445057 5.41070655 -7.6875 3.1875 C-7.29949219 2.58292969 -6.91148437 1.97835938 -6.51171875 1.35546875 C-5 0 -5 0 0 0 Z " fill="#27468B" transform="translate(268,306)"/>
<path d="M0 0 C1.65 0 3.3 0 5 0 C7.01953125 2.1171875 7.01953125 2.1171875 8.8125 4.875 C9.71935547 6.23238281 9.71935547 6.23238281 10.64453125 7.6171875 C12 10 12 10 12 12 C12.66 12 13.32 12 14 12 C14.28230469 11.42765625 14.56460938 10.8553125 14.85546875 10.265625 C15.96710246 8.06512141 17.09398476 5.8933167 18.3125 3.75 C18.70050781 3.04359375 19.08851562 2.3371875 19.48828125 1.609375 C20.23658203 0.81273437 20.23658203 0.81273437 21 0 C22.65 0 24.3 0 26 0 C26 7.92 26 15.84 26 24 C24.35 24 22.7 24 21 24 C20.505 17.565 20.505 17.565 20 11 C18.35 13.31 16.7 15.62 15 18 C12.75 17.875 12.75 17.875 10 17 C7.6875 13.9375 7.6875 13.9375 6 11 C5.67 15.29 5.34 19.58 5 24 C3.35 24 1.7 24 0 24 C0 16.08 0 8.16 0 0 Z " fill="#234389" transform="translate(97,306)"/>
<path d="M0 0 C1.65 0 3.3 0 5 0 C5 7.92 5 15.84 5 24 C3.35 24 1.7 24 0 24 C-1.87014121 21.83551225 -3.31512026 19.89680418 -4.8125 17.5 C-5.21919922 16.87996094 -5.62589844 16.25992187 -6.04492188 15.62109375 C-7.04550555 14.09078931 -8.02485338 12.54663778 -9 11 C-9.33 15.29 -9.66 19.58 -10 24 C-11.65 24 -13.3 24 -15 24 C-15 16.41 -15 8.82 -15 1 C-13.35 1 -11.7 1 -10 1 C-8.13548243 2.99198062 -6.69707209 4.76955072 -5.1875 7 C-4.78080078 7.57234375 -4.37410156 8.1446875 -3.95507812 8.734375 C-2.95525768 10.14588621 -1.97561378 11.57165041 -1 13 C-0.67 8.71 -0.34 4.42 0 0 Z " fill="#204088" transform="translate(172,306)"/>
<path d="M0 0 C1.98 0 3.96 0 6 0 C7.50272459 3.81143177 9.00172313 7.62431787 10.5 11.4375 C10.92925781 12.52611328 11.35851562 13.61472656 11.80078125 14.73632812 C12.40986328 16.28803711 12.40986328 16.28803711 13.03125 17.87109375 C13.40830078 18.82943115 13.78535156 19.78776855 14.17382812 20.77514648 C15 23 15 23 15 24 C13.02 24 11.04 24 9 24 C8.67 22.68 8.34 21.36 8 20 C3.05 20.495 3.05 20.495 -2 21 C-2.33 21.99 -2.66 22.98 -3 24 C-4.98 24 -6.96 24 -9 24 C-6.80148049 15.63019764 -3.50929804 7.88172441 0 0 Z " fill="#28478B" transform="translate(280,306)"/>
<path d="M0 0 C5.28 0 10.56 0 16 0 C16 1.65 16 3.3 16 5 C12.7 5 9.4 5 6 5 C6 6.65 6 8.3 6 10 C8.97 10 11.94 10 15 10 C15 11.32 15 12.64 15 14 C12.03 14 9.06 14 6 14 C6 15.65 6 17.3 6 19 C9.63 19 13.26 19 17 19 C17 20.65 17 22.3 17 24 C11.39 24 5.78 24 0 24 C0 16.08 0 8.16 0 0 Z " fill="#324F90" transform="translate(182,306)"/>
<path d="M0 0 C3.4203866 1.17013226 3.91540482 1.87310723 6 5 C6 5.99 6 6.98 6 8 C4.02 8 2.04 8 0 8 C0 7.01 0 6.02 0 5 C-1.98 5 -3.96 5 -6 5 C-6 5.99 -6 6.98 -6 8 C-5.30132812 8.26554687 -4.60265625 8.53109375 -3.8828125 8.8046875 C-2.51769531 9.33449219 -2.51769531 9.33449219 -1.125 9.875 C0.23238281 10.39707031 0.23238281 10.39707031 1.6171875 10.9296875 C4 12 4 12 6 14 C6.44935048 17.44502033 6.37778761 19.34745776 4.625 22.375 C0.5742497 24.88260733 -3.36478556 24.77766887 -8 24 C-10.625 22.1875 -10.625 22.1875 -12 20 C-12 19.01 -12 18.02 -12 17 C-10.35 17 -8.7 17 -7 17 C-7 17.66 -7 18.32 -7 19 C-5.02 19 -3.04 19 -1 19 C-1 18.01 -1 17.02 -1 16 C-1.62648438 15.73445313 -2.25296875 15.46890625 -2.8984375 15.1953125 C-3.71570313 14.84210938 -4.53296875 14.48890625 -5.375 14.125 C-6.18710937 13.77695312 -6.99921875 13.42890625 -7.8359375 13.0703125 C-10 12 -10 12 -12 10 C-12.45892595 6.48156769 -12.41140736 4.65139498 -10.5 1.625 C-6.98085573 -0.66244378 -4.08622864 -0.56332782 0 0 Z " fill="#29488C" transform="translate(398,306)"/>
<path d="M0 0 C4.95 0 9.9 0 15 0 C15 1.32 15 2.64 15 4 C11.7 4 8.4 4 5 4 C5 5.65 5 7.3 5 9 C7.97 9 10.94 9 14 9 C14 10.32 14 11.64 14 13 C11.03 13 8.06 13 5 13 C5 14.65 5 16.3 5 18 C8.63 18 12.26 18 16 18 C16 19.65 16 21.3 16 23 C10.72 23 5.44 23 0 23 C0 15.41 0 7.82 0 0 Z " fill="#224288" transform="translate(343,307)"/>
<path d="M0 0 C1.98 0 3.96 0 6 0 C10 6.75 10 6.75 10 9 C10.66 9 11.32 9 12 9 C12.28875 8.071875 12.5775 7.14375 12.875 6.1875 C14 3 14 3 16 0 C19.125 -0.1875 19.125 -0.1875 22 0 C20.8152731 3.3387758 19.28019828 6.18379528 17.4375 9.1875 C14.66527381 14.03074223 14.12665899 18.48457665 14 24 C12.02 24 10.04 24 8 24 C8.00902344 23.41734375 8.01804688 22.8346875 8.02734375 22.234375 C7.76878294 15.08460664 5.32349721 10.44473609 1.49609375 4.46875 C0 2 0 2 0 0 Z " fill="#2D4B8E" transform="translate(201,306)"/>
<path d="M0 0 C6.93 0 13.86 0 21 0 C21 1.65 21 3.3 21 5 C18.36 5 15.72 5 13 5 C13 11.27 13 17.54 13 24 C11.35 24 9.7 24 8 24 C8 17.73 8 11.46 8 5 C5.36 5 2.72 5 0 5 C0 3.35 0 1.7 0 0 Z " fill="#28478C" transform="translate(318,306)"/>
<path d="M0 0 C6.27 0 12.54 0 19 0 C19 1.32 19 2.64 19 4 C16.69 4 14.38 4 12 4 C12 10.27 12 16.54 12 23 C10.35 23 8.7 23 7 23 C7 16.73 7 10.46 7 4 C4.69 4 2.38 4 0 4 C0 2.68 0 1.36 0 0 Z " fill="#1C3D86" transform="translate(297,307)"/>
<path d="M0 0 C2.375 1.625 2.375 1.625 4 4 C4.60605429 7.63632575 4.47161336 9.28314769 2.4375 12.375 C-0.8994213 14.5996142 -3.06905293 14.50030235 -7 14 C-8.9375 12.9375 -8.9375 12.9375 -10 11 C-10.50030235 7.06905293 -10.5996142 4.8994213 -8.375 1.5625 C-5.28314769 -0.47161336 -3.63632575 -0.60605429 0 0 Z " fill="#EDEEEC" transform="translate(143,311)"/>
<path d="M0 0 C2.33294775 -0.04241723 4.66702567 -0.04092937 7 0 C8 1 8 1 8.125 3.5 C8 6 8 6 7 7 C4.66702567 7.04092937 2.33294775 7.04241723 0 7 C0 4.69 0 2.38 0 0 Z " fill="#E6E9E9" transform="translate(368,311)"/>
<path d="M0 0 C0 0.99 0 1.98 0 3 C-1.24176695 3.70226141 -2.49385599 4.38629109 -3.75 5.0625 C-4.79414063 5.63677734 -4.79414063 5.63677734 -5.859375 6.22265625 C-8.36140628 7.1312406 -9.5332355 6.88336837 -12 6 C-12 5.01 -12 4.02 -12 3 C-10.75823305 2.29773859 -9.50614401 1.61370891 -8.25 0.9375 C-7.20585937 0.36322266 -7.20585937 0.36322266 -6.140625 -0.22265625 C-3.63859372 -1.1312406 -2.4667645 -0.88336837 0 0 Z " fill="#F1F4EA" transform="translate(318,205)"/>
<path d="M0 0 C3.63 0 7.26 0 11 0 C11 0.99 11 1.98 11 3 C7.37 3 3.74 3 0 3 C0 2.01 0 1.02 0 0 Z " fill="#1D3E86" transform="translate(226,320)"/>
<path d="M0 0 C2.89932357 2.39509338 3.50168276 4.31245243 4 8 C2.02 8 0.04 8 -2 8 C-1.125 2.25 -1.125 2.25 0 0 Z " fill="#D7DCE2" transform="translate(282,314)"/>
</svg>
